<svg version="1.1" xmlns="http://www.w3.org/2000/svg" width="500px" height="500px">
<path d="M0 0 C7.72539449 5.56412341 12.73914733 12.46136163 14.625 21.890625 C14.73999438 24.89547823 14.71426446 27.88538806 14.625 30.890625 C-72.87499998 80.89062499 -72.87499998 80.89062499 -74.62460327 81.89039612 C-75.79259487 82.55782134 -76.96058396 83.22525096 -78.12857056 83.89268494 C-81.02494534 85.54778146 -83.92137169 87.20278758 -86.81787109 88.85766602 C-92.3100077 91.99564176 -97.80172024 95.1343516 -103.29205322 98.27548218 C-105.89946249 99.76717784 -108.50709519 101.25848265 -111.11474609 102.74975586 C-112.36355627 103.46407787 -113.61225567 104.17859358 -114.86083984 104.89331055 C-116.58663776 105.88117947 -118.31284018 106.86834162 -120.0390625 107.85546875 C-121.02342285 108.4187085 -122.0077832 108.98194824 -123.02197266 109.56225586 C-124.4549346 110.37121476 -125.90318631 111.15471815 -127.375 111.890625 C-127.375 112.550625 -127.375 113.210625 -127.375 113.890625 C-126.68277344 114.2717041 -125.99054688 114.6527832 -125.27734375 115.04541016 C-111.85909987 122.44179722 -98.50826746 129.92274375 -85.29882812 137.68798828 C-78.20727599 141.84732151 -71.05891745 145.89318543 -63.875 149.890625 C-54.65081906 155.02400128 -45.51259248 160.28640025 -36.40991211 165.63183594 C-29.13526707 169.8924352 -21.80060039 174.03512858 -14.4375 178.140625 C-13.39988525 178.72481201 -12.36227051 179.30899902 -11.29321289 179.91088867 C-6.56959105 182.56921864 -1.83799887 185.18545976 2.9765625 187.67578125 C4.54688887 188.5182033 6.11720233 189.36064944 7.6875 190.203125 C8.75955688 190.72471191 8.75955688 190.72471191 9.85327148 191.25683594 C11.78515625 192.31640625 11.78515625 192.31640625 14.625 194.890625 C16.17913366 201.81709241 13.80640234 208.77717348 10.625 214.890625 C5.52590999 222.32767952 -0.5079419 227.70678272 -9.375 229.890625 C-24.18217257 231.53422115 -33.89663349 227.06026394 -46.4375 219.515625 C-48.56265781 218.25588014 -50.68899762 216.99812753 -52.81640625 215.7421875 C-53.90066895 215.1018457 -54.98493164 214.46150391 -56.10205078 213.80175781 C-61.31789381 210.75613502 -66.59489164 207.82295979 -71.875 204.890625 C-81.10480884 199.75522106 -90.247391 194.48848717 -99.35546875 189.140625 C-106.4802819 184.96818541 -113.66046141 180.90567256 -120.875 176.890625 C-130.0928273 171.76070372 -139.22761266 166.50649541 -148.3203125 161.15820312 C-156.80003788 156.18559372 -165.374488 151.39152855 -174.00390625 146.68359375 C-184.37566276 140.95794687 -193.73863967 135.15988192 -198.25 123.703125 C-200.64555842 115.3832215 -200.58004973 106.2445914 -196.78491211 98.38232422 C-191.80491522 89.58131153 -184.6508215 84.77728914 -175.875 80.203125 C-173.63426207 78.99302094 -171.39470709 77.78072424 -169.15625 76.56640625 C-168.02445313 75.95748535 -166.89265625 75.34856445 -165.7265625 74.72119141 C-160.54287914 71.88995176 -155.46063116 68.89335633 -150.375 65.890625 C-141.22733435 60.51622137 -132.00090611 55.29982492 -122.73046875 50.140625 C-115.56146305 46.14098048 -108.45407237 42.04714456 -101.375 37.890625 C-92.23606324 32.52464378 -83.0219893 27.31065292 -73.76123047 22.15820312 C-65.30968256 17.44389656 -56.9407005 12.59707964 -48.60351562 7.68359375 C-43.9064399 4.92138361 -39.19128674 2.19658905 -34.4296875 -0.453125 C-33.55554199 -0.93974609 -32.68139648 -1.42636719 -31.78076172 -1.92773438 C-22.021842 -6.72103369 -9.13425289 -5.31176662 0 0 Z " fill="#0802a3" transform="translate(358.375,137.109375)" data-originalfillcolor="#060606"></path>
<path d="M0 0 C0.66 0.33 1.32 0.66 2 1 C-1.63 4.63 -5.26 8.26 -9 12 C-9 8.26071501 -8.08040398 7.59097747 -5.625 4.875 C-4.99851563 4.17117187 -4.37203125 3.46734375 -3.7265625 2.7421875 C-2 1 -2 1 0 0 Z " fill="#0802a3" transform="translate(173,223)" data-originalfillcolor="#565656"></path>
</svg>